<mxfile host="app.diagrams.net" modified="2020-12-27T14:42:35.709Z" agent="5.0 (Windows NT 10.0; Win64; x64) AppleWebKit/537.36 (KHTML, like Gecko) Chrome/86.0.4240.183 Safari/537.36" etag="EZ26XpeUOTKw1DH1fD2x" version="14.1.2" type="github">
  <diagram id="gOX-coOXPsJ2dLTRvxYF" name="Page-1">
    <mxGraphModel dx="1038" dy="491" grid="1" gridSize="10" guides="1" tooltips="1" connect="1" arrows="1" fold="1" page="1" pageScale="1" pageWidth="827" pageHeight="1169" math="0" shadow="0">
      <root>
        <mxCell id="0" />
        <mxCell id="1" parent="0" />
        <mxCell id="h69SEir2kfbID1YA0Bo4-25" style="edgeStyle=orthogonalEdgeStyle;rounded=0;orthogonalLoop=1;jettySize=auto;html=1;exitX=0.5;exitY=1;exitDx=0;exitDy=0;entryX=0.5;entryY=0;entryDx=0;entryDy=0;" edge="1" parent="1" source="h69SEir2kfbID1YA0Bo4-1" target="h69SEir2kfbID1YA0Bo4-2">
          <mxGeometry relative="1" as="geometry" />
        </mxCell>
        <mxCell id="h69SEir2kfbID1YA0Bo4-83" style="edgeStyle=none;rounded=0;orthogonalLoop=1;jettySize=auto;html=1;exitX=1;exitY=1;exitDx=0;exitDy=0;entryX=0;entryY=0;entryDx=0;entryDy=0;" edge="1" parent="1" source="h69SEir2kfbID1YA0Bo4-1" target="h69SEir2kfbID1YA0Bo4-82">
          <mxGeometry relative="1" as="geometry" />
        </mxCell>
        <mxCell id="h69SEir2kfbID1YA0Bo4-1" value="1" style="ellipse;whiteSpace=wrap;html=1;aspect=fixed;" vertex="1" parent="1">
          <mxGeometry x="300" y="140" width="40" height="40" as="geometry" />
        </mxCell>
        <mxCell id="h69SEir2kfbID1YA0Bo4-27" style="edgeStyle=orthogonalEdgeStyle;rounded=0;orthogonalLoop=1;jettySize=auto;html=1;exitX=0.5;exitY=1;exitDx=0;exitDy=0;" edge="1" parent="1" source="h69SEir2kfbID1YA0Bo4-2" target="h69SEir2kfbID1YA0Bo4-4">
          <mxGeometry relative="1" as="geometry" />
        </mxCell>
        <mxCell id="h69SEir2kfbID1YA0Bo4-2" value="2" style="ellipse;whiteSpace=wrap;html=1;aspect=fixed;" vertex="1" parent="1">
          <mxGeometry x="300" y="200" width="40" height="40" as="geometry" />
        </mxCell>
        <mxCell id="h69SEir2kfbID1YA0Bo4-31" style="rounded=0;orthogonalLoop=1;jettySize=auto;html=1;exitX=1;exitY=0.5;exitDx=0;exitDy=0;entryX=0;entryY=0.5;entryDx=0;entryDy=0;" edge="1" parent="1" source="h69SEir2kfbID1YA0Bo4-3" target="h69SEir2kfbID1YA0Bo4-13">
          <mxGeometry relative="1" as="geometry" />
        </mxCell>
        <mxCell id="h69SEir2kfbID1YA0Bo4-3" value="6" style="ellipse;whiteSpace=wrap;html=1;aspect=fixed;" vertex="1" parent="1">
          <mxGeometry x="373.5" y="320" width="40" height="40" as="geometry" />
        </mxCell>
        <mxCell id="h69SEir2kfbID1YA0Bo4-28" style="edgeStyle=orthogonalEdgeStyle;rounded=0;orthogonalLoop=1;jettySize=auto;html=1;exitX=0.5;exitY=1;exitDx=0;exitDy=0;" edge="1" parent="1" source="h69SEir2kfbID1YA0Bo4-4" target="h69SEir2kfbID1YA0Bo4-12">
          <mxGeometry relative="1" as="geometry" />
        </mxCell>
        <mxCell id="h69SEir2kfbID1YA0Bo4-85" style="edgeStyle=none;rounded=0;orthogonalLoop=1;jettySize=auto;html=1;exitX=0;exitY=0.5;exitDx=0;exitDy=0;entryX=1;entryY=0.5;entryDx=0;entryDy=0;" edge="1" parent="1" source="h69SEir2kfbID1YA0Bo4-4" target="h69SEir2kfbID1YA0Bo4-84">
          <mxGeometry relative="1" as="geometry" />
        </mxCell>
        <mxCell id="h69SEir2kfbID1YA0Bo4-4" value="3" style="ellipse;whiteSpace=wrap;html=1;aspect=fixed;" vertex="1" parent="1">
          <mxGeometry x="300" y="260" width="40" height="40" as="geometry" />
        </mxCell>
        <mxCell id="h69SEir2kfbID1YA0Bo4-40" style="edgeStyle=none;rounded=0;orthogonalLoop=1;jettySize=auto;html=1;exitX=0.5;exitY=1;exitDx=0;exitDy=0;entryX=0.5;entryY=0;entryDx=0;entryDy=0;" edge="1" parent="1" source="h69SEir2kfbID1YA0Bo4-5" target="h69SEir2kfbID1YA0Bo4-22">
          <mxGeometry relative="1" as="geometry" />
        </mxCell>
        <mxCell id="h69SEir2kfbID1YA0Bo4-5" value="13" style="ellipse;whiteSpace=wrap;html=1;aspect=fixed;" vertex="1" parent="1">
          <mxGeometry x="580" y="565" width="40" height="40" as="geometry" />
        </mxCell>
        <mxCell id="h69SEir2kfbID1YA0Bo4-37" style="edgeStyle=orthogonalEdgeStyle;rounded=0;orthogonalLoop=1;jettySize=auto;html=1;exitX=0.5;exitY=1;exitDx=0;exitDy=0;entryX=0.5;entryY=0;entryDx=0;entryDy=0;" edge="1" parent="1" source="h69SEir2kfbID1YA0Bo4-6" target="h69SEir2kfbID1YA0Bo4-5">
          <mxGeometry relative="1" as="geometry" />
        </mxCell>
        <mxCell id="h69SEir2kfbID1YA0Bo4-6" value="12" style="ellipse;whiteSpace=wrap;html=1;aspect=fixed;" vertex="1" parent="1">
          <mxGeometry x="580" y="505" width="40" height="40" as="geometry" />
        </mxCell>
        <mxCell id="h69SEir2kfbID1YA0Bo4-36" style="edgeStyle=orthogonalEdgeStyle;rounded=0;orthogonalLoop=1;jettySize=auto;html=1;exitX=0.5;exitY=1;exitDx=0;exitDy=0;entryX=0.5;entryY=0;entryDx=0;entryDy=0;" edge="1" parent="1" source="h69SEir2kfbID1YA0Bo4-7" target="h69SEir2kfbID1YA0Bo4-6">
          <mxGeometry relative="1" as="geometry" />
        </mxCell>
        <mxCell id="h69SEir2kfbID1YA0Bo4-112" style="edgeStyle=orthogonalEdgeStyle;rounded=0;orthogonalLoop=1;jettySize=auto;html=1;exitX=1;exitY=0;exitDx=0;exitDy=0;entryX=1;entryY=0;entryDx=0;entryDy=0;curved=1;" edge="1" parent="1" source="h69SEir2kfbID1YA0Bo4-7" target="h69SEir2kfbID1YA0Bo4-100">
          <mxGeometry relative="1" as="geometry">
            <Array as="points">
              <mxPoint x="660" y="451" />
              <mxPoint x="660" y="80" />
              <mxPoint x="184" y="80" />
            </Array>
          </mxGeometry>
        </mxCell>
        <mxCell id="h69SEir2kfbID1YA0Bo4-7" value="11" style="ellipse;whiteSpace=wrap;html=1;aspect=fixed;" vertex="1" parent="1">
          <mxGeometry x="580" y="445" width="40" height="40" as="geometry" />
        </mxCell>
        <mxCell id="h69SEir2kfbID1YA0Bo4-35" style="rounded=0;orthogonalLoop=1;jettySize=auto;html=1;exitX=0.5;exitY=1;exitDx=0;exitDy=0;" edge="1" parent="1" source="h69SEir2kfbID1YA0Bo4-8" target="h69SEir2kfbID1YA0Bo4-7">
          <mxGeometry relative="1" as="geometry" />
        </mxCell>
        <mxCell id="h69SEir2kfbID1YA0Bo4-8" value="10" style="ellipse;whiteSpace=wrap;html=1;aspect=fixed;" vertex="1" parent="1">
          <mxGeometry x="580" y="390" width="40" height="40" as="geometry" />
        </mxCell>
        <mxCell id="h69SEir2kfbID1YA0Bo4-34" style="rounded=0;orthogonalLoop=1;jettySize=auto;html=1;exitX=0.5;exitY=1;exitDx=0;exitDy=0;entryX=0.5;entryY=0;entryDx=0;entryDy=0;" edge="1" parent="1" source="h69SEir2kfbID1YA0Bo4-9" target="h69SEir2kfbID1YA0Bo4-8">
          <mxGeometry relative="1" as="geometry" />
        </mxCell>
        <mxCell id="h69SEir2kfbID1YA0Bo4-9" value="9" style="ellipse;whiteSpace=wrap;html=1;aspect=fixed;" vertex="1" parent="1">
          <mxGeometry x="580" y="320" width="40" height="40" as="geometry" />
        </mxCell>
        <mxCell id="h69SEir2kfbID1YA0Bo4-33" style="rounded=0;orthogonalLoop=1;jettySize=auto;html=1;exitX=1;exitY=0.5;exitDx=0;exitDy=0;" edge="1" parent="1" source="h69SEir2kfbID1YA0Bo4-10" target="h69SEir2kfbID1YA0Bo4-9">
          <mxGeometry relative="1" as="geometry" />
        </mxCell>
        <mxCell id="h69SEir2kfbID1YA0Bo4-10" value="8" style="ellipse;whiteSpace=wrap;html=1;aspect=fixed;" vertex="1" parent="1">
          <mxGeometry x="510" y="320" width="40" height="40" as="geometry" />
        </mxCell>
        <mxCell id="h69SEir2kfbID1YA0Bo4-88" style="edgeStyle=none;rounded=0;orthogonalLoop=1;jettySize=auto;html=1;exitX=0;exitY=0.5;exitDx=0;exitDy=0;entryX=1;entryY=0;entryDx=0;entryDy=0;" edge="1" parent="1" source="h69SEir2kfbID1YA0Bo4-11" target="h69SEir2kfbID1YA0Bo4-77">
          <mxGeometry relative="1" as="geometry" />
        </mxCell>
        <mxCell id="h69SEir2kfbID1YA0Bo4-11" value="5" style="ellipse;whiteSpace=wrap;html=1;aspect=fixed;" vertex="1" parent="1">
          <mxGeometry x="220" y="320" width="40" height="40" as="geometry" />
        </mxCell>
        <mxCell id="h69SEir2kfbID1YA0Bo4-38" value="" style="rounded=0;orthogonalLoop=1;jettySize=auto;html=1;" edge="1" parent="1" source="h69SEir2kfbID1YA0Bo4-12" target="h69SEir2kfbID1YA0Bo4-3">
          <mxGeometry relative="1" as="geometry" />
        </mxCell>
        <mxCell id="h69SEir2kfbID1YA0Bo4-39" style="rounded=0;orthogonalLoop=1;jettySize=auto;html=1;exitX=0;exitY=0.5;exitDx=0;exitDy=0;entryX=1;entryY=0.5;entryDx=0;entryDy=0;" edge="1" parent="1" source="h69SEir2kfbID1YA0Bo4-12" target="h69SEir2kfbID1YA0Bo4-11">
          <mxGeometry relative="1" as="geometry" />
        </mxCell>
        <mxCell id="h69SEir2kfbID1YA0Bo4-12" value="4" style="ellipse;whiteSpace=wrap;html=1;aspect=fixed;" vertex="1" parent="1">
          <mxGeometry x="300" y="320" width="40" height="40" as="geometry" />
        </mxCell>
        <mxCell id="h69SEir2kfbID1YA0Bo4-32" style="rounded=0;orthogonalLoop=1;jettySize=auto;html=1;exitX=1;exitY=0.5;exitDx=0;exitDy=0;entryX=0;entryY=0.5;entryDx=0;entryDy=0;" edge="1" parent="1" source="h69SEir2kfbID1YA0Bo4-13" target="h69SEir2kfbID1YA0Bo4-10">
          <mxGeometry relative="1" as="geometry" />
        </mxCell>
        <mxCell id="h69SEir2kfbID1YA0Bo4-13" value="7" style="ellipse;whiteSpace=wrap;html=1;aspect=fixed;" vertex="1" parent="1">
          <mxGeometry x="440" y="320" width="40" height="40" as="geometry" />
        </mxCell>
        <mxCell id="h69SEir2kfbID1YA0Bo4-56" style="edgeStyle=none;rounded=0;orthogonalLoop=1;jettySize=auto;html=1;exitX=0.5;exitY=1;exitDx=0;exitDy=0;entryX=1;entryY=0.5;entryDx=0;entryDy=0;" edge="1" parent="1" source="h69SEir2kfbID1YA0Bo4-19" target="h69SEir2kfbID1YA0Bo4-52">
          <mxGeometry relative="1" as="geometry" />
        </mxCell>
        <mxCell id="h69SEir2kfbID1YA0Bo4-19" value="17" style="ellipse;whiteSpace=wrap;html=1;aspect=fixed;" vertex="1" parent="1">
          <mxGeometry x="570" y="800" width="40" height="40" as="geometry" />
        </mxCell>
        <mxCell id="h69SEir2kfbID1YA0Bo4-43" style="edgeStyle=none;rounded=0;orthogonalLoop=1;jettySize=auto;html=1;exitX=0.5;exitY=1;exitDx=0;exitDy=0;entryX=1;entryY=0;entryDx=0;entryDy=0;" edge="1" parent="1" source="h69SEir2kfbID1YA0Bo4-20" target="h69SEir2kfbID1YA0Bo4-19">
          <mxGeometry relative="1" as="geometry" />
        </mxCell>
        <mxCell id="h69SEir2kfbID1YA0Bo4-20" value="16" style="ellipse;whiteSpace=wrap;html=1;aspect=fixed;" vertex="1" parent="1">
          <mxGeometry x="630" y="740" width="40" height="40" as="geometry" />
        </mxCell>
        <mxCell id="h69SEir2kfbID1YA0Bo4-42" style="edgeStyle=none;rounded=0;orthogonalLoop=1;jettySize=auto;html=1;exitX=1;exitY=1;exitDx=0;exitDy=0;entryX=0;entryY=0;entryDx=0;entryDy=0;" edge="1" parent="1" source="h69SEir2kfbID1YA0Bo4-21" target="h69SEir2kfbID1YA0Bo4-20">
          <mxGeometry relative="1" as="geometry" />
        </mxCell>
        <mxCell id="h69SEir2kfbID1YA0Bo4-62" style="edgeStyle=none;rounded=0;orthogonalLoop=1;jettySize=auto;html=1;exitX=0;exitY=0.5;exitDx=0;exitDy=0;entryX=1;entryY=0.5;entryDx=0;entryDy=0;" edge="1" parent="1" source="h69SEir2kfbID1YA0Bo4-21" target="h69SEir2kfbID1YA0Bo4-61">
          <mxGeometry relative="1" as="geometry" />
        </mxCell>
        <mxCell id="h69SEir2kfbID1YA0Bo4-21" value="15" style="ellipse;whiteSpace=wrap;html=1;aspect=fixed;" vertex="1" parent="1">
          <mxGeometry x="580" y="685" width="40" height="40" as="geometry" />
        </mxCell>
        <mxCell id="h69SEir2kfbID1YA0Bo4-41" style="edgeStyle=none;rounded=0;orthogonalLoop=1;jettySize=auto;html=1;exitX=0.5;exitY=1;exitDx=0;exitDy=0;entryX=0.5;entryY=0;entryDx=0;entryDy=0;" edge="1" parent="1" source="h69SEir2kfbID1YA0Bo4-22" target="h69SEir2kfbID1YA0Bo4-21">
          <mxGeometry relative="1" as="geometry" />
        </mxCell>
        <mxCell id="h69SEir2kfbID1YA0Bo4-22" value="14" style="ellipse;whiteSpace=wrap;html=1;aspect=fixed;" vertex="1" parent="1">
          <mxGeometry x="580" y="625" width="40" height="40" as="geometry" />
        </mxCell>
        <mxCell id="h69SEir2kfbID1YA0Bo4-55" style="edgeStyle=none;rounded=0;orthogonalLoop=1;jettySize=auto;html=1;exitX=0;exitY=0.5;exitDx=0;exitDy=0;entryX=1;entryY=0.5;entryDx=0;entryDy=0;" edge="1" parent="1" source="h69SEir2kfbID1YA0Bo4-44" target="h69SEir2kfbID1YA0Bo4-54">
          <mxGeometry relative="1" as="geometry" />
        </mxCell>
        <mxCell id="h69SEir2kfbID1YA0Bo4-44" value="22" style="ellipse;whiteSpace=wrap;html=1;aspect=fixed;" vertex="1" parent="1">
          <mxGeometry x="240" y="840" width="40" height="40" as="geometry" />
        </mxCell>
        <mxCell id="h69SEir2kfbID1YA0Bo4-45" style="edgeStyle=orthogonalEdgeStyle;rounded=0;orthogonalLoop=1;jettySize=auto;html=1;exitX=0;exitY=0.5;exitDx=0;exitDy=0;entryX=1;entryY=0.5;entryDx=0;entryDy=0;" edge="1" source="h69SEir2kfbID1YA0Bo4-46" target="h69SEir2kfbID1YA0Bo4-44" parent="1">
          <mxGeometry relative="1" as="geometry" />
        </mxCell>
        <mxCell id="h69SEir2kfbID1YA0Bo4-46" value="21" style="ellipse;whiteSpace=wrap;html=1;aspect=fixed;" vertex="1" parent="1">
          <mxGeometry x="310" y="840" width="40" height="40" as="geometry" />
        </mxCell>
        <mxCell id="h69SEir2kfbID1YA0Bo4-47" style="edgeStyle=orthogonalEdgeStyle;rounded=0;orthogonalLoop=1;jettySize=auto;html=1;exitX=0;exitY=0.5;exitDx=0;exitDy=0;entryX=1;entryY=0.5;entryDx=0;entryDy=0;" edge="1" source="h69SEir2kfbID1YA0Bo4-48" target="h69SEir2kfbID1YA0Bo4-46" parent="1">
          <mxGeometry relative="1" as="geometry" />
        </mxCell>
        <mxCell id="h69SEir2kfbID1YA0Bo4-48" value="20" style="ellipse;whiteSpace=wrap;html=1;aspect=fixed;" vertex="1" parent="1">
          <mxGeometry x="373.5" y="840" width="40" height="40" as="geometry" />
        </mxCell>
        <mxCell id="h69SEir2kfbID1YA0Bo4-49" style="rounded=0;orthogonalLoop=1;jettySize=auto;html=1;exitX=0;exitY=0.5;exitDx=0;exitDy=0;entryX=1;entryY=0.5;entryDx=0;entryDy=0;" edge="1" source="h69SEir2kfbID1YA0Bo4-50" target="h69SEir2kfbID1YA0Bo4-48" parent="1">
          <mxGeometry relative="1" as="geometry" />
        </mxCell>
        <mxCell id="h69SEir2kfbID1YA0Bo4-50" value="19" style="ellipse;whiteSpace=wrap;html=1;aspect=fixed;" vertex="1" parent="1">
          <mxGeometry x="440" y="840" width="40" height="40" as="geometry" />
        </mxCell>
        <mxCell id="h69SEir2kfbID1YA0Bo4-51" style="rounded=0;orthogonalLoop=1;jettySize=auto;html=1;exitX=0;exitY=0.5;exitDx=0;exitDy=0;" edge="1" source="h69SEir2kfbID1YA0Bo4-52" target="h69SEir2kfbID1YA0Bo4-50" parent="1">
          <mxGeometry relative="1" as="geometry" />
        </mxCell>
        <mxCell id="h69SEir2kfbID1YA0Bo4-52" value="18" style="ellipse;whiteSpace=wrap;html=1;aspect=fixed;" vertex="1" parent="1">
          <mxGeometry x="500" y="840" width="40" height="40" as="geometry" />
        </mxCell>
        <mxCell id="h69SEir2kfbID1YA0Bo4-92" style="edgeStyle=none;rounded=0;orthogonalLoop=1;jettySize=auto;html=1;exitX=0;exitY=0.5;exitDx=0;exitDy=0;entryX=1;entryY=0.5;entryDx=0;entryDy=0;" edge="1" parent="1" source="h69SEir2kfbID1YA0Bo4-54" target="h69SEir2kfbID1YA0Bo4-58">
          <mxGeometry relative="1" as="geometry" />
        </mxCell>
        <mxCell id="h69SEir2kfbID1YA0Bo4-54" value="23" style="ellipse;whiteSpace=wrap;html=1;aspect=fixed;" vertex="1" parent="1">
          <mxGeometry x="170" y="840" width="40" height="40" as="geometry" />
        </mxCell>
        <mxCell id="h69SEir2kfbID1YA0Bo4-107" style="edgeStyle=none;rounded=0;orthogonalLoop=1;jettySize=auto;html=1;exitX=1;exitY=0;exitDx=0;exitDy=0;entryX=0;entryY=1;entryDx=0;entryDy=0;" edge="1" parent="1" source="h69SEir2kfbID1YA0Bo4-58" target="h69SEir2kfbID1YA0Bo4-95">
          <mxGeometry relative="1" as="geometry" />
        </mxCell>
        <mxCell id="h69SEir2kfbID1YA0Bo4-58" value="24" style="ellipse;whiteSpace=wrap;html=1;aspect=fixed;" vertex="1" parent="1">
          <mxGeometry x="100" y="840" width="40" height="40" as="geometry" />
        </mxCell>
        <mxCell id="h69SEir2kfbID1YA0Bo4-64" style="edgeStyle=none;rounded=0;orthogonalLoop=1;jettySize=auto;html=1;exitX=0;exitY=0.5;exitDx=0;exitDy=0;entryX=1;entryY=0.5;entryDx=0;entryDy=0;" edge="1" parent="1" source="h69SEir2kfbID1YA0Bo4-61" target="h69SEir2kfbID1YA0Bo4-63">
          <mxGeometry relative="1" as="geometry" />
        </mxCell>
        <mxCell id="h69SEir2kfbID1YA0Bo4-61" value="25" style="ellipse;whiteSpace=wrap;html=1;aspect=fixed;" vertex="1" parent="1">
          <mxGeometry x="500" y="685" width="40" height="40" as="geometry" />
        </mxCell>
        <mxCell id="h69SEir2kfbID1YA0Bo4-78" style="edgeStyle=none;rounded=0;orthogonalLoop=1;jettySize=auto;html=1;exitX=0.5;exitY=1;exitDx=0;exitDy=0;entryX=0.5;entryY=0;entryDx=0;entryDy=0;" edge="1" parent="1" source="h69SEir2kfbID1YA0Bo4-63" target="h69SEir2kfbID1YA0Bo4-74">
          <mxGeometry relative="1" as="geometry" />
        </mxCell>
        <mxCell id="h69SEir2kfbID1YA0Bo4-110" style="rounded=0;orthogonalLoop=1;jettySize=auto;html=1;exitX=0.013;exitY=0.7;exitDx=0;exitDy=0;entryX=1;entryY=0.5;entryDx=0;entryDy=0;exitPerimeter=0;" edge="1" parent="1" source="h69SEir2kfbID1YA0Bo4-63" target="h69SEir2kfbID1YA0Bo4-77">
          <mxGeometry relative="1" as="geometry" />
        </mxCell>
        <mxCell id="h69SEir2kfbID1YA0Bo4-63" value="26" style="ellipse;whiteSpace=wrap;html=1;aspect=fixed;" vertex="1" parent="1">
          <mxGeometry x="333.5" y="360" width="40" height="40" as="geometry" />
        </mxCell>
        <mxCell id="h69SEir2kfbID1YA0Bo4-65" style="edgeStyle=none;rounded=0;orthogonalLoop=1;jettySize=auto;html=1;exitX=0.5;exitY=1;exitDx=0;exitDy=0;entryX=1;entryY=0;entryDx=0;entryDy=0;" edge="1" source="h69SEir2kfbID1YA0Bo4-66" target="h69SEir2kfbID1YA0Bo4-76" parent="1">
          <mxGeometry relative="1" as="geometry" />
        </mxCell>
        <mxCell id="h69SEir2kfbID1YA0Bo4-66" value="22" style="ellipse;whiteSpace=wrap;html=1;aspect=fixed;" vertex="1" parent="1">
          <mxGeometry x="333.5" y="660" width="40" height="40" as="geometry" />
        </mxCell>
        <mxCell id="h69SEir2kfbID1YA0Bo4-67" style="edgeStyle=orthogonalEdgeStyle;rounded=0;orthogonalLoop=1;jettySize=auto;html=1;exitX=0.5;exitY=1;exitDx=0;exitDy=0;entryX=0.5;entryY=0;entryDx=0;entryDy=0;" edge="1" source="h69SEir2kfbID1YA0Bo4-68" target="h69SEir2kfbID1YA0Bo4-66" parent="1">
          <mxGeometry relative="1" as="geometry" />
        </mxCell>
        <mxCell id="h69SEir2kfbID1YA0Bo4-68" value="21" style="ellipse;whiteSpace=wrap;html=1;aspect=fixed;" vertex="1" parent="1">
          <mxGeometry x="333.5" y="600" width="40" height="40" as="geometry" />
        </mxCell>
        <mxCell id="h69SEir2kfbID1YA0Bo4-69" style="edgeStyle=orthogonalEdgeStyle;rounded=0;orthogonalLoop=1;jettySize=auto;html=1;exitX=0.5;exitY=1;exitDx=0;exitDy=0;" edge="1" source="h69SEir2kfbID1YA0Bo4-70" target="h69SEir2kfbID1YA0Bo4-68" parent="1">
          <mxGeometry relative="1" as="geometry" />
        </mxCell>
        <mxCell id="h69SEir2kfbID1YA0Bo4-70" value="20" style="ellipse;whiteSpace=wrap;html=1;aspect=fixed;" vertex="1" parent="1">
          <mxGeometry x="333.5" y="540" width="40" height="40" as="geometry" />
        </mxCell>
        <mxCell id="h69SEir2kfbID1YA0Bo4-71" style="edgeStyle=orthogonalEdgeStyle;rounded=0;orthogonalLoop=1;jettySize=auto;html=1;exitX=0.5;exitY=1;exitDx=0;exitDy=0;entryX=0.5;entryY=0;entryDx=0;entryDy=0;" edge="1" source="h69SEir2kfbID1YA0Bo4-72" target="h69SEir2kfbID1YA0Bo4-70" parent="1">
          <mxGeometry relative="1" as="geometry" />
        </mxCell>
        <mxCell id="h69SEir2kfbID1YA0Bo4-72" value="19" style="ellipse;whiteSpace=wrap;html=1;aspect=fixed;" vertex="1" parent="1">
          <mxGeometry x="333.5" y="480" width="40" height="40" as="geometry" />
        </mxCell>
        <mxCell id="h69SEir2kfbID1YA0Bo4-73" style="edgeStyle=orthogonalEdgeStyle;rounded=0;orthogonalLoop=1;jettySize=auto;html=1;exitX=0.5;exitY=1;exitDx=0;exitDy=0;" edge="1" source="h69SEir2kfbID1YA0Bo4-74" target="h69SEir2kfbID1YA0Bo4-72" parent="1">
          <mxGeometry relative="1" as="geometry" />
        </mxCell>
        <mxCell id="h69SEir2kfbID1YA0Bo4-74" value="18" style="ellipse;whiteSpace=wrap;html=1;aspect=fixed;" vertex="1" parent="1">
          <mxGeometry x="333.5" y="420" width="40" height="40" as="geometry" />
        </mxCell>
        <mxCell id="h69SEir2kfbID1YA0Bo4-75" style="edgeStyle=none;rounded=0;orthogonalLoop=1;jettySize=auto;html=1;exitX=0;exitY=0;exitDx=0;exitDy=0;entryX=0.5;entryY=1;entryDx=0;entryDy=0;" edge="1" source="h69SEir2kfbID1YA0Bo4-76" target="h69SEir2kfbID1YA0Bo4-77" parent="1">
          <mxGeometry relative="1" as="geometry" />
        </mxCell>
        <mxCell id="h69SEir2kfbID1YA0Bo4-97" style="edgeStyle=none;rounded=0;orthogonalLoop=1;jettySize=auto;html=1;exitX=0;exitY=0.5;exitDx=0;exitDy=0;entryX=1;entryY=0.5;entryDx=0;entryDy=0;" edge="1" parent="1" source="h69SEir2kfbID1YA0Bo4-76" target="h69SEir2kfbID1YA0Bo4-95">
          <mxGeometry relative="1" as="geometry" />
        </mxCell>
        <mxCell id="h69SEir2kfbID1YA0Bo4-76" value="23" style="ellipse;whiteSpace=wrap;html=1;aspect=fixed;" vertex="1" parent="1">
          <mxGeometry x="293.5" y="720" width="40" height="40" as="geometry" />
        </mxCell>
        <mxCell id="h69SEir2kfbID1YA0Bo4-77" value="28" style="ellipse;whiteSpace=wrap;html=1;aspect=fixed;" vertex="1" parent="1">
          <mxGeometry x="50" y="380" width="40" height="40" as="geometry" />
        </mxCell>
        <mxCell id="h69SEir2kfbID1YA0Bo4-82" value="29" style="ellipse;whiteSpace=wrap;html=1;aspect=fixed;" vertex="1" parent="1">
          <mxGeometry x="360" y="180" width="40" height="40" as="geometry" />
        </mxCell>
        <mxCell id="h69SEir2kfbID1YA0Bo4-87" style="edgeStyle=none;rounded=0;orthogonalLoop=1;jettySize=auto;html=1;exitX=0;exitY=1;exitDx=0;exitDy=0;entryX=0.5;entryY=0;entryDx=0;entryDy=0;" edge="1" parent="1" source="h69SEir2kfbID1YA0Bo4-84" target="h69SEir2kfbID1YA0Bo4-77">
          <mxGeometry relative="1" as="geometry" />
        </mxCell>
        <mxCell id="h69SEir2kfbID1YA0Bo4-84" value="27" style="ellipse;whiteSpace=wrap;html=1;aspect=fixed;" vertex="1" parent="1">
          <mxGeometry x="220" y="260" width="40" height="40" as="geometry" />
        </mxCell>
        <mxCell id="h69SEir2kfbID1YA0Bo4-108" style="edgeStyle=orthogonalEdgeStyle;rounded=0;orthogonalLoop=1;jettySize=auto;html=1;exitX=0;exitY=0.5;exitDx=0;exitDy=0;entryX=1;entryY=0.5;entryDx=0;entryDy=0;curved=1;" edge="1" parent="1" source="h69SEir2kfbID1YA0Bo4-95" target="h69SEir2kfbID1YA0Bo4-7">
          <mxGeometry relative="1" as="geometry">
            <Array as="points">
              <mxPoint x="200" y="780" />
              <mxPoint x="60" y="780" />
              <mxPoint x="60" y="940" />
              <mxPoint x="720" y="940" />
              <mxPoint x="720" y="465" />
            </Array>
          </mxGeometry>
        </mxCell>
        <mxCell id="h69SEir2kfbID1YA0Bo4-95" value="30" style="ellipse;whiteSpace=wrap;html=1;aspect=fixed;" vertex="1" parent="1">
          <mxGeometry x="200" y="740" width="40" height="40" as="geometry" />
        </mxCell>
        <mxCell id="h69SEir2kfbID1YA0Bo4-103" style="rounded=0;orthogonalLoop=1;jettySize=auto;html=1;exitX=0;exitY=1;exitDx=0;exitDy=0;entryX=1;entryY=0;entryDx=0;entryDy=0;" edge="1" parent="1" source="h69SEir2kfbID1YA0Bo4-100" target="h69SEir2kfbID1YA0Bo4-101">
          <mxGeometry relative="1" as="geometry" />
        </mxCell>
        <mxCell id="h69SEir2kfbID1YA0Bo4-100" value="31" style="ellipse;whiteSpace=wrap;html=1;aspect=fixed;" vertex="1" parent="1">
          <mxGeometry x="150" y="170" width="40" height="40" as="geometry" />
        </mxCell>
        <mxCell id="h69SEir2kfbID1YA0Bo4-104" style="rounded=0;orthogonalLoop=1;jettySize=auto;html=1;exitX=0.5;exitY=0;exitDx=0;exitDy=0;entryX=0;entryY=0;entryDx=0;entryDy=0;" edge="1" parent="1" source="h69SEir2kfbID1YA0Bo4-101" target="h69SEir2kfbID1YA0Bo4-77">
          <mxGeometry relative="1" as="geometry" />
        </mxCell>
        <mxCell id="h69SEir2kfbID1YA0Bo4-101" value="29" style="ellipse;whiteSpace=wrap;html=1;aspect=fixed;" vertex="1" parent="1">
          <mxGeometry x="70" y="250" width="40" height="40" as="geometry" />
        </mxCell>
      </root>
    </mxGraphModel>
  </diagram>
</mxfile>
